<svg xmlns="http://www.w3.org/2000/svg" viewBox="0 0 1200 630" shape-rendering="crispEdges">
  <!-- Background -->
  <rect width="1200" height="630" fill="#0f0f23"/>
  
  <!-- Pixel grid pattern background -->
  <g opacity="0.05">
    <rect x="0" y="0" width="1200" height="630" fill="url(#grid)"/>
  </g>
  <defs>
    <pattern id="grid" width="20" height="20" patternUnits="userSpaceOnUse">
      <rect width="20" height="20" fill="none" stroke="#4a4a8a" stroke-width="0.5"/>
    </pattern>
  </defs>
  
  <!-- Top border decoration (castle ramparts) -->
  <g>
    <rect x="0" y="16" width="1200" height="8" fill="#4a4a8a" opacity="0.6"/>
    <rect x="0" y="0" width="16" height="16" fill="#4a4a8a" opacity="0.6"/>
    <rect x="24" y="0" width="16" height="16" fill="#4a4a8a" opacity="0.6"/>
    <rect x="48" y="0" width="16" height="16" fill="#4a4a8a" opacity="0.6"/>
    <rect x="72" y="0" width="16" height="16" fill="#4a4a8a" opacity="0.6"/>
    <rect x="96" y="0" width="16" height="16" fill="#4a4a8a" opacity="0.6"/>
    <rect x="120" y="0" width="16" height="16" fill="#4a4a8a" opacity="0.6"/>
    <rect x="144" y="0" width="16" height="16" fill="#4a4a8a" opacity="0.6"/>
    <rect x="168" y="0" width="16" height="16" fill="#4a4a8a" opacity="0.6"/>
    <rect x="192" y="0" width="16" height="16" fill="#4a4a8a" opacity="0.6"/>
    <rect x="216" y="0" width="16" height="16" fill="#4a4a8a" opacity="0.6"/>
    <rect x="240" y="0" width="16" height="16" fill="#4a4a8a" opacity="0.6"/>
    <rect x="264" y="0" width="16" height="16" fill="#4a4a8a" opacity="0.6"/>
    <rect x="288" y="0" width="16" height="16" fill="#4a4a8a" opacity="0.6"/>
    <rect x="312" y="0" width="16" height="16" fill="#4a4a8a" opacity="0.6"/>
    <rect x="336" y="0" width="16" height="16" fill="#4a4a8a" opacity="0.6"/>
    <rect x="360" y="0" width="16" height="16" fill="#4a4a8a" opacity="0.6"/>
    <rect x="384" y="0" width="16" height="16" fill="#4a4a8a" opacity="0.6"/>
    <rect x="408" y="0" width="16" height="16" fill="#4a4a8a" opacity="0.6"/>
    <rect x="432" y="0" width="16" height="16" fill="#4a4a8a" opacity="0.6"/>
    <rect x="456" y="0" width="16" height="16" fill="#4a4a8a" opacity="0.6"/>
    <rect x="480" y="0" width="16" height="16" fill="#4a4a8a" opacity="0.6"/>
    <rect x="504" y="0" width="16" height="16" fill="#4a4a8a" opacity="0.6"/>
    <rect x="528" y="0" width="16" height="16" fill="#4a4a8a" opacity="0.6"/>
    <rect x="552" y="0" width="16" height="16" fill="#4a4a8a" opacity="0.6"/>
    <rect x="576" y="0" width="16" height="16" fill="#4a4a8a" opacity="0.6"/>
    <rect x="600" y="0" width="16" height="16" fill="#4a4a8a" opacity="0.6"/>
    <rect x="624" y="0" width="16" height="16" fill="#4a4a8a" opacity="0.6"/>
    <rect x="648" y="0" width="16" height="16" fill="#4a4a8a" opacity="0.6"/>
    <rect x="672" y="0" width="16" height="16" fill="#4a4a8a" opacity="0.6"/>
    <rect x="696" y="0" width="16" height="16" fill="#4a4a8a" opacity="0.6"/>
    <rect x="720" y="0" width="16" height="16" fill="#4a4a8a" opacity="0.6"/>
    <rect x="744" y="0" width="16" height="16" fill="#4a4a8a" opacity="0.6"/>
    <rect x="768" y="0" width="16" height="16" fill="#4a4a8a" opacity="0.6"/>
    <rect x="792" y="0" width="16" height="16" fill="#4a4a8a" opacity="0.6"/>
    <rect x="816" y="0" width="16" height="16" fill="#4a4a8a" opacity="0.6"/>
    <rect x="840" y="0" width="16" height="16" fill="#4a4a8a" opacity="0.6"/>
    <rect x="864" y="0" width="16" height="16" fill="#4a4a8a" opacity="0.6"/>
    <rect x="888" y="0" width="16" height="16" fill="#4a4a8a" opacity="0.6"/>
    <rect x="912" y="0" width="16" height="16" fill="#4a4a8a" opacity="0.6"/>
    <rect x="936" y="0" width="16" height="16" fill="#4a4a8a" opacity="0.6"/>
    <rect x="960" y="0" width="16" height="16" fill="#4a4a8a" opacity="0.6"/>
    <rect x="984" y="0" width="16" height="16" fill="#4a4a8a" opacity="0.6"/>
    <rect x="1008" y="0" width="16" height="16" fill="#4a4a8a" opacity="0.6"/>
    <rect x="1032" y="0" width="16" height="16" fill="#4a4a8a" opacity="0.6"/>
    <rect x="1056" y="0" width="16" height="16" fill="#4a4a8a" opacity="0.6"/>
    <rect x="1080" y="0" width="16" height="16" fill="#4a4a8a" opacity="0.6"/>
    <rect x="1104" y="0" width="16" height="16" fill="#4a4a8a" opacity="0.6"/>
    <rect x="1128" y="0" width="16" height="16" fill="#4a4a8a" opacity="0.6"/>
    <rect x="1152" y="0" width="16" height="16" fill="#4a4a8a" opacity="0.6"/>
    <rect x="1176" y="0" width="16" height="16" fill="#4a4a8a" opacity="0.6"/>
  </g>
  
  <!-- Scattered pixel stars -->
  <rect x="60" y="60" width="8" height="8" fill="#e8e8e8" opacity="0.6"/>
  <rect x="200" y="100" width="8" height="8" fill="#ffd93d" opacity="0.5"/>
  <rect x="340" y="50" width="8" height="8" fill="#e8e8e8" opacity="0.4"/>
  <rect x="500" y="80" width="8" height="8" fill="#e8e8e8" opacity="0.3"/>
  <rect x="800" y="60" width="8" height="8" fill="#ffd93d" opacity="0.4"/>
  <rect x="950" y="90" width="8" height="8" fill="#e8e8e8" opacity="0.5"/>
  <rect x="1100" y="50" width="8" height="8" fill="#e8e8e8" opacity="0.3"/>
  <rect x="150" y="500" width="8" height="8" fill="#e8e8e8" opacity="0.3"/>
  <rect x="1050" y="480" width="8" height="8" fill="#e8e8e8" opacity="0.2"/>
  <rect x="700" y="520" width="8" height="8" fill="#ffd93d" opacity="0.3"/>
  
  <!-- Pixel gamepad (left side decoration) -->
  <g transform="translate(80, 180)">
    <!-- Gamepad body -->
    <rect x="0" y="20" width="8" height="8" fill="#4a4a8a" opacity="0.4"/>
    <rect x="8" y="12" width="8" height="8" fill="#4a4a8a" opacity="0.4"/>
    <rect x="16" y="8" width="40" height="8" fill="#4a4a8a" opacity="0.4"/>
    <rect x="0" y="28" width="64" height="8" fill="#4a4a8a" opacity="0.4"/>
    <rect x="56" y="20" width="8" height="8" fill="#4a4a8a" opacity="0.4"/>
    <rect x="8" y="36" width="48" height="8" fill="#4a4a8a" opacity="0.4"/>
    <rect x="16" y="44" width="32" height="8" fill="#4a4a8a" opacity="0.4"/>
    <!-- D-Pad -->
    <rect x="16" y="24" width="8" height="8" fill="#00d4aa" opacity="0.3"/>
    <rect x="24" y="16" width="8" height="24" fill="#00d4aa" opacity="0.3"/>
    <rect x="32" y="24" width="8" height="8" fill="#00d4aa" opacity="0.3"/>
    <!-- Buttons -->
    <rect x="48" y="20" width="8" height="8" fill="#ff6b9d" opacity="0.4"/>
    <rect x="40" y="28" width="8" height="8" fill="#ffd93d" opacity="0.4"/>
  </g>
  
  <!-- Right side pixel controller -->
  <g transform="translate(1020, 360)">
    <rect x="0" y="20" width="8" height="8" fill="#4a4a8a" opacity="0.3"/>
    <rect x="8" y="12" width="8" height="8" fill="#4a4a8a" opacity="0.3"/>
    <rect x="16" y="8" width="40" height="8" fill="#4a4a8a" opacity="0.3"/>
    <rect x="0" y="28" width="64" height="8" fill="#4a4a8a" opacity="0.3"/>
    <rect x="56" y="20" width="8" height="8" fill="#4a4a8a" opacity="0.3"/>
    <rect x="8" y="36" width="48" height="8" fill="#4a4a8a" opacity="0.3"/>
    <rect x="16" y="44" width="32" height="8" fill="#4a4a8a" opacity="0.3"/>
  </g>
  
  <!-- Main text: "APP" -->
  <!-- A -->
  <rect x="260" y="180" width="16" height="8" fill="#e8e8e8"/>
  <rect x="252" y="188" width="8" height="8" fill="#e8e8e8"/>
  <rect x="276" y="188" width="8" height="8" fill="#e8e8e8"/>
  <rect x="252" y="196" width="32" height="8" fill="#e8e8e8"/>
  <rect x="252" y="204" width="8" height="16" fill="#e8e8e8"/>
  <rect x="276" y="204" width="8" height="16" fill="#e8e8e8"/>
  <!-- P -->
  <rect x="296" y="180" width="8" height="40" fill="#e8e8e8"/>
  <rect x="304" y="180" width="16" height="8" fill="#e8e8e8"/>
  <rect x="320" y="188" width="8" height="8" fill="#e8e8e8"/>
  <rect x="304" y="196" width="16" height="8" fill="#e8e8e8"/>
  <!-- P -->
  <rect x="340" y="180" width="8" height="40" fill="#e8e8e8"/>
  <rect x="348" y="180" width="16" height="8" fill="#e8e8e8"/>
  <rect x="364" y="188" width="8" height="8" fill="#e8e8e8"/>
  <rect x="348" y="196" width="16" height="8" fill="#e8e8e8"/>
  
  <!-- "MOD" in teal -->
  <!-- M -->
  <rect x="408" y="180" width="8" height="40" fill="#00d4aa"/>
  <rect x="416" y="188" width="8" height="8" fill="#00d4aa"/>
  <rect x="424" y="196" width="8" height="8" fill="#00d4aa"/>
  <rect x="432" y="188" width="8" height="8" fill="#00d4aa"/>
  <rect x="440" y="180" width="8" height="40" fill="#00d4aa"/>
  <!-- O -->
  <rect x="464" y="188" width="8" height="24" fill="#00d4aa"/>
  <rect x="472" y="180" width="16" height="8" fill="#00d4aa"/>
  <rect x="488" y="188" width="8" height="24" fill="#00d4aa"/>
  <rect x="472" y="212" width="16" height="8" fill="#00d4aa"/>
  <!-- D -->
  <rect x="508" y="180" width="8" height="40" fill="#00d4aa"/>
  <rect x="516" y="180" width="16" height="8" fill="#00d4aa"/>
  <rect x="532" y="188" width="8" height="24" fill="#00d4aa"/>
  <rect x="516" y="212" width="16" height="8" fill="#00d4aa"/>
  
  <!-- "LABS" in pink -->
  <!-- L -->
  <rect x="572" y="180" width="8" height="40" fill="#ff6b9d"/>
  <rect x="580" y="212" width="20" height="8" fill="#ff6b9d"/>
  <!-- A -->
  <rect x="612" y="180" width="16" height="8" fill="#ff6b9d"/>
  <rect x="604" y="188" width="8" height="8" fill="#ff6b9d"/>
  <rect x="628" y="188" width="8" height="8" fill="#ff6b9d"/>
  <rect x="604" y="196" width="32" height="8" fill="#ff6b9d"/>
  <rect x="604" y="204" width="8" height="16" fill="#ff6b9d"/>
  <rect x="628" y="204" width="8" height="16" fill="#ff6b9d"/>
  <!-- B -->
  <rect x="648" y="180" width="8" height="40" fill="#ff6b9d"/>
  <rect x="656" y="180" width="16" height="8" fill="#ff6b9d"/>
  <rect x="672" y="188" width="8" height="8" fill="#ff6b9d"/>
  <rect x="656" y="196" width="16" height="8" fill="#ff6b9d"/>
  <rect x="672" y="204" width="8" height="8" fill="#ff6b9d"/>
  <rect x="656" y="212" width="16" height="8" fill="#ff6b9d"/>
  <!-- S -->
  <rect x="696" y="180" width="24" height="8" fill="#ff6b9d"/>
  <rect x="692" y="188" width="8" height="8" fill="#ff6b9d"/>
  <rect x="696" y="196" width="20" height="8" fill="#ff6b9d"/>
  <rect x="712" y="204" width="8" height="8" fill="#ff6b9d"/>
  <rect x="692" y="212" width="24" height="8" fill="#ff6b9d"/>
  
  <!-- Tagline: "Level Up Your Apps" rendered with pixel text style -->
  <!-- Simplified as rectangle blocks for readability at social media scale -->
  <rect x="350" y="260" width="500" height="4" fill="#4a4a8a" opacity="0.4"/>
  
  <!-- "LEVEL UP YOUR APPS" in smaller pixel blocks -->
  <!-- L -->
  <rect x="358" y="280" width="4" height="20" fill="#ffd93d"/>
  <rect x="362" y="296" width="12" height="4" fill="#ffd93d"/>
  <!-- E -->
  <rect x="380" y="280" width="4" height="20" fill="#ffd93d"/>
  <rect x="384" y="280" width="10" height="4" fill="#ffd93d"/>
  <rect x="384" y="288" width="8" height="4" fill="#ffd93d"/>
  <rect x="384" y="296" width="10" height="4" fill="#ffd93d"/>
  <!-- V -->
  <rect x="400" y="280" width="4" height="12" fill="#ffd93d"/>
  <rect x="412" y="280" width="4" height="12" fill="#ffd93d"/>
  <rect x="404" y="292" width="4" height="4" fill="#ffd93d"/>
  <rect x="408" y="292" width="4" height="4" fill="#ffd93d"/>
  <rect x="406" y="296" width="4" height="4" fill="#ffd93d"/>
  <!-- E -->
  <rect x="422" y="280" width="4" height="20" fill="#ffd93d"/>
  <rect x="426" y="280" width="10" height="4" fill="#ffd93d"/>
  <rect x="426" y="288" width="8" height="4" fill="#ffd93d"/>
  <rect x="426" y="296" width="10" height="4" fill="#ffd93d"/>
  <!-- L -->
  <rect x="442" y="280" width="4" height="20" fill="#ffd93d"/>
  <rect x="446" y="296" width="12" height="4" fill="#ffd93d"/>
  
  <!-- gap -->
  
  <!-- U -->
  <rect x="472" y="280" width="4" height="16" fill="#ffd93d"/>
  <rect x="484" y="280" width="4" height="16" fill="#ffd93d"/>
  <rect x="476" y="296" width="8" height="4" fill="#ffd93d"/>
  <!-- P -->
  <rect x="494" y="280" width="4" height="20" fill="#ffd93d"/>
  <rect x="498" y="280" width="8" height="4" fill="#ffd93d"/>
  <rect x="506" y="284" width="4" height="4" fill="#ffd93d"/>
  <rect x="498" y="288" width="8" height="4" fill="#ffd93d"/>
  
  <!-- gap -->
  
  <!-- Y -->
  <rect x="524" y="280" width="4" height="8" fill="#ffd93d"/>
  <rect x="536" y="280" width="4" height="8" fill="#ffd93d"/>
  <rect x="528" y="288" width="8" height="4" fill="#ffd93d"/>
  <rect x="530" y="292" width="4" height="8" fill="#ffd93d"/>
  <!-- O -->
  <rect x="548" y="284" width="4" height="12" fill="#ffd93d"/>
  <rect x="552" y="280" width="8" height="4" fill="#ffd93d"/>
  <rect x="560" y="284" width="4" height="12" fill="#ffd93d"/>
  <rect x="552" y="296" width="8" height="4" fill="#ffd93d"/>
  <!-- U -->
  <rect x="570" y="280" width="4" height="16" fill="#ffd93d"/>
  <rect x="582" y="280" width="4" height="16" fill="#ffd93d"/>
  <rect x="574" y="296" width="8" height="4" fill="#ffd93d"/>
  <!-- R -->
  <rect x="592" y="280" width="4" height="20" fill="#ffd93d"/>
  <rect x="596" y="280" width="8" height="4" fill="#ffd93d"/>
  <rect x="604" y="284" width="4" height="4" fill="#ffd93d"/>
  <rect x="596" y="288" width="8" height="4" fill="#ffd93d"/>
  <rect x="600" y="292" width="4" height="4" fill="#ffd93d"/>
  <rect x="604" y="296" width="4" height="4" fill="#ffd93d"/>
  
  <!-- gap -->
  
  <!-- A -->
  <rect x="624" y="280" width="8" height="4" fill="#ffd93d"/>
  <rect x="620" y="284" width="4" height="4" fill="#ffd93d"/>
  <rect x="632" y="284" width="4" height="4" fill="#ffd93d"/>
  <rect x="620" y="288" width="16" height="4" fill="#ffd93d"/>
  <rect x="620" y="292" width="4" height="8" fill="#ffd93d"/>
  <rect x="632" y="292" width="4" height="8" fill="#ffd93d"/>
  <!-- P -->
  <rect x="642" y="280" width="4" height="20" fill="#ffd93d"/>
  <rect x="646" y="280" width="8" height="4" fill="#ffd93d"/>
  <rect x="654" y="284" width="4" height="4" fill="#ffd93d"/>
  <rect x="646" y="288" width="8" height="4" fill="#ffd93d"/>
  <!-- P -->
  <rect x="664" y="280" width="4" height="20" fill="#ffd93d"/>
  <rect x="668" y="280" width="8" height="4" fill="#ffd93d"/>
  <rect x="676" y="284" width="4" height="4" fill="#ffd93d"/>
  <rect x="668" y="288" width="8" height="4" fill="#ffd93d"/>
  <!-- S -->
  <rect x="688" y="280" width="12" height="4" fill="#ffd93d"/>
  <rect x="686" y="284" width="4" height="4" fill="#ffd93d"/>
  <rect x="688" y="288" width="10" height="4" fill="#ffd93d"/>
  <rect x="696" y="292" width="4" height="4" fill="#ffd93d"/>
  <rect x="686" y="296" width="12" height="4" fill="#ffd93d"/>
  
  <!-- Gamepad emoji area — pixel art 🎮 -->
  <rect x="714" y="282" width="8" height="4" fill="#ff6b9d" opacity="0.6"/>
  <rect x="710" y="286" width="16" height="8" fill="#ff6b9d" opacity="0.6"/>
  <rect x="712" y="294" width="4" height="4" fill="#ff6b9d" opacity="0.6"/>
  <rect x="720" y="294" width="4" height="4" fill="#ff6b9d" opacity="0.6"/>
  
  <!-- Pixel coins decorations -->
  <g transform="translate(140, 400)">
    <rect x="4" y="0" width="8" height="2" fill="#ffd93d" opacity="0.4"/>
    <rect x="2" y="2" width="12" height="8" fill="#ffd93d" opacity="0.4"/>
    <rect x="4" y="10" width="8" height="2" fill="#ffd93d" opacity="0.4"/>
    <rect x="6" y="3" width="4" height="6" fill="#e8a800" opacity="0.3"/>
  </g>
  <g transform="translate(1020, 140)">
    <rect x="4" y="0" width="8" height="2" fill="#ffd93d" opacity="0.3"/>
    <rect x="2" y="2" width="12" height="8" fill="#ffd93d" opacity="0.3"/>
    <rect x="4" y="10" width="8" height="2" fill="#ffd93d" opacity="0.3"/>
    <rect x="6" y="3" width="4" height="6" fill="#e8a800" opacity="0.2"/>
  </g>
  
  <!-- Bottom decoration border -->
  <rect x="0" y="580" width="1200" height="8" fill="#4a4a8a" opacity="0.6"/>
  <rect x="0" y="590" width="1200" height="8" fill="#4a4a8a" opacity="0.3"/>
  <!-- Color accent strip -->
  <rect x="0" y="600" width="400" height="8" fill="#00d4aa" opacity="0.5"/>
  <rect x="400" y="600" width="400" height="8" fill="#ff6b9d" opacity="0.5"/>
  <rect x="800" y="600" width="400" height="8" fill="#ffd93d" opacity="0.5"/>
  
  <!-- Bottom bar -->
  <rect x="0" y="610" width="1200" height="20" fill="#4a4a8a" opacity="0.2"/>
  
  <!-- Health bar style progress -->
  <rect x="200" y="350" width="800" height="8" fill="#4a4a8a" opacity="0.3"/>
  <rect x="200" y="350" width="600" height="8" fill="#00d4aa" opacity="0.4"/>
  <rect x="200" y="350" width="200" height="8" fill="#00d4aa" opacity="0.6"/>
  
  <!-- Pixel heart decorations -->
  <rect x="60" y="350" width="8" height="8" fill="#ff6b9d" opacity="0.3"/>
  <rect x="52" y="358" width="24" height="8" fill="#ff6b9d" opacity="0.3"/>
  <rect x="56" y="366" width="16" height="4" fill="#ff6b9d" opacity="0.3"/>
  <rect x="60" y="370" width="8" height="4" fill="#ff6b9d" opacity="0.3"/>
  
  <rect x="1120" y="350" width="8" height="8" fill="#ff6b9d" opacity="0.3"/>
  <rect x="1112" y="358" width="24" height="8" fill="#ff6b9d" opacity="0.3"/>
  <rect x="1116" y="366" width="16" height="4" fill="#ff6b9d" opacity="0.3"/>
  <rect x="1120" y="370" width="8" height="4" fill="#ff6b9d" opacity="0.3"/>
</svg>
