<svg xmlns="http://www.w3.org/2000/svg" viewBox="0 0 800 800" shape-rendering="crispEdges">
  <!-- Background -->
  <rect width="800" height="800" fill="#0f0f23"/>
  <defs>
    <pattern id="pgrid" width="32" height="32" patternUnits="userSpaceOnUse">
      <rect width="32" height="32" fill="none" stroke="#4a4a8a" stroke-width="0.5"/>
    </pattern>
  </defs>
  <rect width="800" height="800" fill="url(#pgrid)" opacity="0.05"/>
  <!-- Pixel circle border -->
  <rect x="336" y="96" width="16" height="16" fill="#00d4aa" opacity="0.8"/>
  <rect x="352" y="96" width="16" height="16" fill="#00d4aa" opacity="0.8"/>
  <rect x="368" y="96" width="16" height="16" fill="#00d4aa" opacity="0.8"/>
  <rect x="384" y="96" width="16" height="16" fill="#00d4aa" opacity="0.8"/>
  <rect x="400" y="96" width="16" height="16" fill="#00d4aa" opacity="0.8"/>
  <rect x="416" y="96" width="16" height="16" fill="#00d4aa" opacity="0.8"/>
  <rect x="432" y="96" width="16" height="16" fill="#00d4aa" opacity="0.8"/>
  <rect x="448" y="96" width="16" height="16" fill="#00d4aa" opacity="0.8"/>
  <rect x="464" y="96" width="16" height="16" fill="#00d4aa" opacity="0.8"/>
  <rect x="288" y="112" width="16" height="16" fill="#00d4aa" opacity="0.8"/>
  <rect x="304" y="112" width="16" height="16" fill="#00d4aa" opacity="0.8"/>
  <rect x="320" y="112" width="16" height="16" fill="#00d4aa" opacity="0.8"/>
  <rect x="480" y="112" width="16" height="16" fill="#00d4aa" opacity="0.8"/>
  <rect x="496" y="112" width="16" height="16" fill="#00d4aa" opacity="0.8"/>
  <rect x="512" y="112" width="16" height="16" fill="#00d4aa" opacity="0.8"/>
  <rect x="256" y="128" width="16" height="16" fill="#00d4aa" opacity="0.8"/>
  <rect x="272" y="128" width="16" height="16" fill="#00d4aa" opacity="0.8"/>
  <rect x="528" y="128" width="16" height="16" fill="#00d4aa" opacity="0.8"/>
  <rect x="544" y="128" width="16" height="16" fill="#00d4aa" opacity="0.8"/>
  <rect x="240" y="144" width="16" height="16" fill="#00d4aa" opacity="0.8"/>
  <rect x="560" y="144" width="16" height="16" fill="#00d4aa" opacity="0.8"/>
  <rect x="208" y="160" width="16" height="16" fill="#00d4aa" opacity="0.8"/>
  <rect x="224" y="160" width="16" height="16" fill="#00d4aa" opacity="0.8"/>
  <rect x="576" y="160" width="16" height="16" fill="#00d4aa" opacity="0.8"/>
  <rect x="592" y="160" width="16" height="16" fill="#00d4aa" opacity="0.8"/>
  <rect x="192" y="176" width="16" height="16" fill="#00d4aa" opacity="0.8"/>
  <rect x="608" y="176" width="16" height="16" fill="#00d4aa" opacity="0.8"/>
  <rect x="176" y="192" width="16" height="16" fill="#00d4aa" opacity="0.8"/>
  <rect x="624" y="192" width="16" height="16" fill="#00d4aa" opacity="0.8"/>
  <rect x="160" y="208" width="16" height="16" fill="#00d4aa" opacity="0.8"/>
  <rect x="640" y="208" width="16" height="16" fill="#00d4aa" opacity="0.8"/>
  <rect x="160" y="224" width="16" height="16" fill="#00d4aa" opacity="0.8"/>
  <rect x="640" y="224" width="16" height="16" fill="#00d4aa" opacity="0.8"/>
  <rect x="144" y="240" width="16" height="16" fill="#00d4aa" opacity="0.8"/>
  <rect x="656" y="240" width="16" height="16" fill="#00d4aa" opacity="0.8"/>
  <rect x="128" y="256" width="16" height="16" fill="#00d4aa" opacity="0.8"/>
  <rect x="672" y="256" width="16" height="16" fill="#00d4aa" opacity="0.8"/>
  <rect x="128" y="272" width="16" height="16" fill="#00d4aa" opacity="0.8"/>
  <rect x="672" y="272" width="16" height="16" fill="#00d4aa" opacity="0.8"/>
  <rect x="112" y="288" width="16" height="16" fill="#00d4aa" opacity="0.8"/>
  <rect x="688" y="288" width="16" height="16" fill="#00d4aa" opacity="0.8"/>
  <rect x="112" y="304" width="16" height="16" fill="#00d4aa" opacity="0.8"/>
  <rect x="688" y="304" width="16" height="16" fill="#00d4aa" opacity="0.8"/>
  <rect x="112" y="320" width="16" height="16" fill="#00d4aa" opacity="0.8"/>
  <rect x="688" y="320" width="16" height="16" fill="#00d4aa" opacity="0.8"/>
  <rect x="96" y="336" width="16" height="16" fill="#00d4aa" opacity="0.8"/>
  <rect x="704" y="336" width="16" height="16" fill="#00d4aa" opacity="0.8"/>
  <rect x="96" y="352" width="16" height="16" fill="#00d4aa" opacity="0.8"/>
  <rect x="704" y="352" width="16" height="16" fill="#00d4aa" opacity="0.8"/>
  <rect x="96" y="368" width="16" height="16" fill="#00d4aa" opacity="0.8"/>
  <rect x="704" y="368" width="16" height="16" fill="#00d4aa" opacity="0.8"/>
  <rect x="96" y="384" width="16" height="16" fill="#00d4aa" opacity="0.8"/>
  <rect x="704" y="384" width="16" height="16" fill="#00d4aa" opacity="0.8"/>
  <rect x="96" y="400" width="16" height="16" fill="#00d4aa" opacity="0.8"/>
  <rect x="704" y="400" width="16" height="16" fill="#00d4aa" opacity="0.8"/>
  <rect x="96" y="416" width="16" height="16" fill="#00d4aa" opacity="0.8"/>
  <rect x="704" y="416" width="16" height="16" fill="#00d4aa" opacity="0.8"/>
  <rect x="96" y="432" width="16" height="16" fill="#00d4aa" opacity="0.8"/>
  <rect x="704" y="432" width="16" height="16" fill="#00d4aa" opacity="0.8"/>
  <rect x="96" y="448" width="16" height="16" fill="#00d4aa" opacity="0.8"/>
  <rect x="704" y="448" width="16" height="16" fill="#00d4aa" opacity="0.8"/>
  <rect x="96" y="464" width="16" height="16" fill="#00d4aa" opacity="0.8"/>
  <rect x="704" y="464" width="16" height="16" fill="#00d4aa" opacity="0.8"/>
  <rect x="112" y="480" width="16" height="16" fill="#00d4aa" opacity="0.8"/>
  <rect x="688" y="480" width="16" height="16" fill="#00d4aa" opacity="0.8"/>
  <rect x="112" y="496" width="16" height="16" fill="#00d4aa" opacity="0.8"/>
  <rect x="688" y="496" width="16" height="16" fill="#00d4aa" opacity="0.8"/>
  <rect x="112" y="512" width="16" height="16" fill="#00d4aa" opacity="0.8"/>
  <rect x="688" y="512" width="16" height="16" fill="#00d4aa" opacity="0.8"/>
  <rect x="128" y="528" width="16" height="16" fill="#00d4aa" opacity="0.8"/>
  <rect x="672" y="528" width="16" height="16" fill="#00d4aa" opacity="0.8"/>
  <rect x="128" y="544" width="16" height="16" fill="#00d4aa" opacity="0.8"/>
  <rect x="672" y="544" width="16" height="16" fill="#00d4aa" opacity="0.8"/>
  <rect x="144" y="560" width="16" height="16" fill="#00d4aa" opacity="0.8"/>
  <rect x="656" y="560" width="16" height="16" fill="#00d4aa" opacity="0.8"/>
  <rect x="160" y="576" width="16" height="16" fill="#00d4aa" opacity="0.8"/>
  <rect x="640" y="576" width="16" height="16" fill="#00d4aa" opacity="0.8"/>
  <rect x="160" y="592" width="16" height="16" fill="#00d4aa" opacity="0.8"/>
  <rect x="640" y="592" width="16" height="16" fill="#00d4aa" opacity="0.8"/>
  <rect x="176" y="608" width="16" height="16" fill="#00d4aa" opacity="0.8"/>
  <rect x="624" y="608" width="16" height="16" fill="#00d4aa" opacity="0.8"/>
  <rect x="192" y="624" width="16" height="16" fill="#00d4aa" opacity="0.8"/>
  <rect x="608" y="624" width="16" height="16" fill="#00d4aa" opacity="0.8"/>
  <rect x="208" y="640" width="16" height="16" fill="#00d4aa" opacity="0.8"/>
  <rect x="224" y="640" width="16" height="16" fill="#00d4aa" opacity="0.8"/>
  <rect x="576" y="640" width="16" height="16" fill="#00d4aa" opacity="0.8"/>
  <rect x="592" y="640" width="16" height="16" fill="#00d4aa" opacity="0.8"/>
  <rect x="240" y="656" width="16" height="16" fill="#00d4aa" opacity="0.8"/>
  <rect x="560" y="656" width="16" height="16" fill="#00d4aa" opacity="0.8"/>
  <rect x="256" y="672" width="16" height="16" fill="#00d4aa" opacity="0.8"/>
  <rect x="272" y="672" width="16" height="16" fill="#00d4aa" opacity="0.8"/>
  <rect x="528" y="672" width="16" height="16" fill="#00d4aa" opacity="0.8"/>
  <rect x="544" y="672" width="16" height="16" fill="#00d4aa" opacity="0.8"/>
  <rect x="288" y="688" width="16" height="16" fill="#00d4aa" opacity="0.8"/>
  <rect x="304" y="688" width="16" height="16" fill="#00d4aa" opacity="0.8"/>
  <rect x="320" y="688" width="16" height="16" fill="#00d4aa" opacity="0.8"/>
  <rect x="480" y="688" width="16" height="16" fill="#00d4aa" opacity="0.8"/>
  <rect x="496" y="688" width="16" height="16" fill="#00d4aa" opacity="0.8"/>
  <rect x="512" y="688" width="16" height="16" fill="#00d4aa" opacity="0.8"/>
  <rect x="336" y="704" width="16" height="16" fill="#00d4aa" opacity="0.8"/>
  <rect x="352" y="704" width="16" height="16" fill="#00d4aa" opacity="0.8"/>
  <rect x="368" y="704" width="16" height="16" fill="#00d4aa" opacity="0.8"/>
  <rect x="384" y="704" width="16" height="16" fill="#00d4aa" opacity="0.8"/>
  <rect x="400" y="704" width="16" height="16" fill="#00d4aa" opacity="0.8"/>
  <rect x="416" y="704" width="16" height="16" fill="#00d4aa" opacity="0.8"/>
  <rect x="432" y="704" width="16" height="16" fill="#00d4aa" opacity="0.8"/>
  <rect x="448" y="704" width="16" height="16" fill="#00d4aa" opacity="0.8"/>
  <rect x="464" y="704" width="16" height="16" fill="#00d4aa" opacity="0.8"/>
  <!-- Inner circle accent -->
  <rect x="336" y="128" width="16" height="16" fill="#4a4a8a" opacity="0.35"/>
  <rect x="352" y="128" width="16" height="16" fill="#4a4a8a" opacity="0.35"/>
  <rect x="368" y="128" width="16" height="16" fill="#4a4a8a" opacity="0.35"/>
  <rect x="384" y="128" width="16" height="16" fill="#4a4a8a" opacity="0.35"/>
  <rect x="400" y="128" width="16" height="16" fill="#4a4a8a" opacity="0.35"/>
  <rect x="416" y="128" width="16" height="16" fill="#4a4a8a" opacity="0.35"/>
  <rect x="432" y="128" width="16" height="16" fill="#4a4a8a" opacity="0.35"/>
  <rect x="448" y="128" width="16" height="16" fill="#4a4a8a" opacity="0.35"/>
  <rect x="464" y="128" width="16" height="16" fill="#4a4a8a" opacity="0.35"/>
  <rect x="304" y="144" width="16" height="16" fill="#4a4a8a" opacity="0.35"/>
  <rect x="320" y="144" width="16" height="16" fill="#4a4a8a" opacity="0.35"/>
  <rect x="480" y="144" width="16" height="16" fill="#4a4a8a" opacity="0.35"/>
  <rect x="496" y="144" width="16" height="16" fill="#4a4a8a" opacity="0.35"/>
  <rect x="272" y="160" width="16" height="16" fill="#4a4a8a" opacity="0.35"/>
  <rect x="288" y="160" width="16" height="16" fill="#4a4a8a" opacity="0.35"/>
  <rect x="512" y="160" width="16" height="16" fill="#4a4a8a" opacity="0.35"/>
  <rect x="528" y="160" width="16" height="16" fill="#4a4a8a" opacity="0.35"/>
  <rect x="240" y="176" width="16" height="16" fill="#4a4a8a" opacity="0.35"/>
  <rect x="256" y="176" width="16" height="16" fill="#4a4a8a" opacity="0.35"/>
  <rect x="544" y="176" width="16" height="16" fill="#4a4a8a" opacity="0.35"/>
  <rect x="560" y="176" width="16" height="16" fill="#4a4a8a" opacity="0.35"/>
  <rect x="224" y="192" width="16" height="16" fill="#4a4a8a" opacity="0.35"/>
  <rect x="576" y="192" width="16" height="16" fill="#4a4a8a" opacity="0.35"/>
  <rect x="208" y="208" width="16" height="16" fill="#4a4a8a" opacity="0.35"/>
  <rect x="592" y="208" width="16" height="16" fill="#4a4a8a" opacity="0.35"/>
  <rect x="192" y="224" width="16" height="16" fill="#4a4a8a" opacity="0.35"/>
  <rect x="608" y="224" width="16" height="16" fill="#4a4a8a" opacity="0.35"/>
  <rect x="176" y="240" width="16" height="16" fill="#4a4a8a" opacity="0.35"/>
  <rect x="624" y="240" width="16" height="16" fill="#4a4a8a" opacity="0.35"/>
  <rect x="176" y="256" width="16" height="16" fill="#4a4a8a" opacity="0.35"/>
  <rect x="624" y="256" width="16" height="16" fill="#4a4a8a" opacity="0.35"/>
  <rect x="160" y="272" width="16" height="16" fill="#4a4a8a" opacity="0.35"/>
  <rect x="640" y="272" width="16" height="16" fill="#4a4a8a" opacity="0.35"/>
  <rect x="160" y="288" width="16" height="16" fill="#4a4a8a" opacity="0.35"/>
  <rect x="640" y="288" width="16" height="16" fill="#4a4a8a" opacity="0.35"/>
  <rect x="144" y="304" width="16" height="16" fill="#4a4a8a" opacity="0.35"/>
  <rect x="656" y="304" width="16" height="16" fill="#4a4a8a" opacity="0.35"/>
  <rect x="144" y="320" width="16" height="16" fill="#4a4a8a" opacity="0.35"/>
  <rect x="656" y="320" width="16" height="16" fill="#4a4a8a" opacity="0.35"/>
  <rect x="128" y="336" width="16" height="16" fill="#4a4a8a" opacity="0.35"/>
  <rect x="672" y="336" width="16" height="16" fill="#4a4a8a" opacity="0.35"/>
  <rect x="128" y="352" width="16" height="16" fill="#4a4a8a" opacity="0.35"/>
  <rect x="672" y="352" width="16" height="16" fill="#4a4a8a" opacity="0.35"/>
  <rect x="128" y="368" width="16" height="16" fill="#4a4a8a" opacity="0.35"/>
  <rect x="672" y="368" width="16" height="16" fill="#4a4a8a" opacity="0.35"/>
  <rect x="128" y="384" width="16" height="16" fill="#4a4a8a" opacity="0.35"/>
  <rect x="672" y="384" width="16" height="16" fill="#4a4a8a" opacity="0.35"/>
  <rect x="128" y="400" width="16" height="16" fill="#4a4a8a" opacity="0.35"/>
  <rect x="672" y="400" width="16" height="16" fill="#4a4a8a" opacity="0.35"/>
  <rect x="128" y="416" width="16" height="16" fill="#4a4a8a" opacity="0.35"/>
  <rect x="672" y="416" width="16" height="16" fill="#4a4a8a" opacity="0.35"/>
  <rect x="128" y="432" width="16" height="16" fill="#4a4a8a" opacity="0.35"/>
  <rect x="672" y="432" width="16" height="16" fill="#4a4a8a" opacity="0.35"/>
  <rect x="128" y="448" width="16" height="16" fill="#4a4a8a" opacity="0.35"/>
  <rect x="672" y="448" width="16" height="16" fill="#4a4a8a" opacity="0.35"/>
  <rect x="128" y="464" width="16" height="16" fill="#4a4a8a" opacity="0.35"/>
  <rect x="672" y="464" width="16" height="16" fill="#4a4a8a" opacity="0.35"/>
  <rect x="144" y="480" width="16" height="16" fill="#4a4a8a" opacity="0.35"/>
  <rect x="656" y="480" width="16" height="16" fill="#4a4a8a" opacity="0.35"/>
  <rect x="144" y="496" width="16" height="16" fill="#4a4a8a" opacity="0.35"/>
  <rect x="656" y="496" width="16" height="16" fill="#4a4a8a" opacity="0.35"/>
  <rect x="160" y="512" width="16" height="16" fill="#4a4a8a" opacity="0.35"/>
  <rect x="640" y="512" width="16" height="16" fill="#4a4a8a" opacity="0.35"/>
  <rect x="160" y="528" width="16" height="16" fill="#4a4a8a" opacity="0.35"/>
  <rect x="640" y="528" width="16" height="16" fill="#4a4a8a" opacity="0.35"/>
  <rect x="176" y="544" width="16" height="16" fill="#4a4a8a" opacity="0.35"/>
  <rect x="624" y="544" width="16" height="16" fill="#4a4a8a" opacity="0.35"/>
  <rect x="176" y="560" width="16" height="16" fill="#4a4a8a" opacity="0.35"/>
  <rect x="624" y="560" width="16" height="16" fill="#4a4a8a" opacity="0.35"/>
  <rect x="192" y="576" width="16" height="16" fill="#4a4a8a" opacity="0.35"/>
  <rect x="608" y="576" width="16" height="16" fill="#4a4a8a" opacity="0.35"/>
  <rect x="208" y="592" width="16" height="16" fill="#4a4a8a" opacity="0.35"/>
  <rect x="592" y="592" width="16" height="16" fill="#4a4a8a" opacity="0.35"/>
  <rect x="224" y="608" width="16" height="16" fill="#4a4a8a" opacity="0.35"/>
  <rect x="576" y="608" width="16" height="16" fill="#4a4a8a" opacity="0.35"/>
  <rect x="240" y="624" width="16" height="16" fill="#4a4a8a" opacity="0.35"/>
  <rect x="256" y="624" width="16" height="16" fill="#4a4a8a" opacity="0.35"/>
  <rect x="544" y="624" width="16" height="16" fill="#4a4a8a" opacity="0.35"/>
  <rect x="560" y="624" width="16" height="16" fill="#4a4a8a" opacity="0.35"/>
  <rect x="272" y="640" width="16" height="16" fill="#4a4a8a" opacity="0.35"/>
  <rect x="288" y="640" width="16" height="16" fill="#4a4a8a" opacity="0.35"/>
  <rect x="512" y="640" width="16" height="16" fill="#4a4a8a" opacity="0.35"/>
  <rect x="528" y="640" width="16" height="16" fill="#4a4a8a" opacity="0.35"/>
  <rect x="304" y="656" width="16" height="16" fill="#4a4a8a" opacity="0.35"/>
  <rect x="320" y="656" width="16" height="16" fill="#4a4a8a" opacity="0.35"/>
  <rect x="480" y="656" width="16" height="16" fill="#4a4a8a" opacity="0.35"/>
  <rect x="496" y="656" width="16" height="16" fill="#4a4a8a" opacity="0.35"/>
  <rect x="336" y="672" width="16" height="16" fill="#4a4a8a" opacity="0.35"/>
  <rect x="352" y="672" width="16" height="16" fill="#4a4a8a" opacity="0.35"/>
  <rect x="368" y="672" width="16" height="16" fill="#4a4a8a" opacity="0.35"/>
  <rect x="384" y="672" width="16" height="16" fill="#4a4a8a" opacity="0.35"/>
  <rect x="400" y="672" width="16" height="16" fill="#4a4a8a" opacity="0.35"/>
  <rect x="416" y="672" width="16" height="16" fill="#4a4a8a" opacity="0.35"/>
  <rect x="432" y="672" width="16" height="16" fill="#4a4a8a" opacity="0.35"/>
  <rect x="448" y="672" width="16" height="16" fill="#4a4a8a" opacity="0.35"/>
  <rect x="464" y="672" width="16" height="16" fill="#4a4a8a" opacity="0.35"/>
  <!-- Pixel Gamepad Icon -->
  <rect x="352" y="224" width="96" height="16" fill="#00d4aa"/>
  <rect x="336" y="240" width="128" height="16" fill="#00d4aa"/>
  <rect x="320" y="256" width="160" height="16" fill="#00d4aa"/>
  <rect x="304" y="272" width="192" height="16" fill="#00d4aa"/>
  <rect x="304" y="288" width="192" height="16" fill="#00d4aa"/>
  <rect x="304" y="304" width="192" height="16" fill="#00d4aa"/>
  <rect x="320" y="320" width="160" height="16" fill="#00d4aa"/>
  <rect x="336" y="336" width="128" height="16" fill="#00d4aa"/>
  <rect x="336" y="352" width="48" height="16" fill="#00d4aa"/>
  <rect x="416" y="352" width="48" height="16" fill="#00d4aa"/>
  <rect x="352" y="368" width="32" height="16" fill="#00d4aa"/>
  <rect x="416" y="368" width="32" height="16" fill="#00d4aa"/>
  <rect x="352" y="272" width="16" height="48" fill="#0f0f23"/>
  <rect x="336" y="288" width="48" height="16" fill="#0f0f23"/>
  <rect x="432" y="272" width="16" height="16" fill="#ff6b9d"/>
  <rect x="448" y="288" width="16" height="16" fill="#ffd93d"/>
  <rect x="432" y="304" width="16" height="16" fill="#ffd93d"/>
  <rect x="448" y="272" width="16" height="16" fill="#ff6b9d"/>
  <rect x="384" y="256" width="32" height="16" fill="#4a4a8a"/>
  <!-- Pixel text: AL -->
  <rect x="354" y="430" width="14" height="14" fill="#e8e8e8"/>
  <rect x="368" y="430" width="14" height="14" fill="#e8e8e8"/>
  <rect x="382" y="430" width="14" height="14" fill="#e8e8e8"/>
  <rect x="340" y="444" width="14" height="14" fill="#e8e8e8"/>
  <rect x="396" y="444" width="14" height="14" fill="#e8e8e8"/>
  <rect x="340" y="458" width="14" height="14" fill="#e8e8e8"/>
  <rect x="396" y="458" width="14" height="14" fill="#e8e8e8"/>
  <rect x="340" y="472" width="14" height="14" fill="#e8e8e8"/>
  <rect x="354" y="472" width="14" height="14" fill="#e8e8e8"/>
  <rect x="368" y="472" width="14" height="14" fill="#e8e8e8"/>
  <rect x="382" y="472" width="14" height="14" fill="#e8e8e8"/>
  <rect x="396" y="472" width="14" height="14" fill="#e8e8e8"/>
  <rect x="340" y="486" width="14" height="14" fill="#e8e8e8"/>
  <rect x="396" y="486" width="14" height="14" fill="#e8e8e8"/>
  <rect x="340" y="500" width="14" height="14" fill="#e8e8e8"/>
  <rect x="396" y="500" width="14" height="14" fill="#e8e8e8"/>
  <rect x="340" y="514" width="14" height="14" fill="#e8e8e8"/>
  <rect x="396" y="514" width="14" height="14" fill="#e8e8e8"/>
  <rect x="438" y="430" width="14" height="14" fill="#e8e8e8"/>
  <rect x="438" y="444" width="14" height="14" fill="#e8e8e8"/>
  <rect x="438" y="458" width="14" height="14" fill="#e8e8e8"/>
  <rect x="438" y="472" width="14" height="14" fill="#e8e8e8"/>
  <rect x="438" y="486" width="14" height="14" fill="#e8e8e8"/>
  <rect x="438" y="500" width="14" height="14" fill="#e8e8e8"/>
  <rect x="438" y="514" width="14" height="14" fill="#e8e8e8"/>
  <rect x="452" y="514" width="14" height="14" fill="#e8e8e8"/>
  <rect x="466" y="514" width="14" height="14" fill="#e8e8e8"/>
  <rect x="480" y="514" width="14" height="14" fill="#e8e8e8"/>
  <rect x="494" y="514" width="14" height="14" fill="#e8e8e8"/>
  <!-- Pixel stars -->
  <rect x="120" y="120" width="8" height="8" fill="#ffd93d" opacity="0.7"/>
  <rect x="640" y="100" width="8" height="8" fill="#e8e8e8" opacity="0.5"/>
  <rect x="680" y="680" width="8" height="8" fill="#ffd93d" opacity="0.6"/>
  <rect x="100" y="660" width="8" height="8" fill="#e8e8e8" opacity="0.4"/>
  <rect x="360" y="80" width="8" height="8" fill="#ffd93d" opacity="0.3"/>
  <rect x="440" y="700" width="8" height="8" fill="#e8e8e8" opacity="0.3"/>
  <rect x="160" y="400" width="8" height="8" fill="#ffd93d" opacity="0.2"/>
  <rect x="620" y="400" width="8" height="8" fill="#e8e8e8" opacity="0.2"/>
  <!-- Corner accents -->
  <rect x="16" y="16" width="16" height="16" fill="#ff6b9d" opacity="0.4"/>
  <rect x="768" y="16" width="16" height="16" fill="#ff6b9d" opacity="0.4"/>
  <rect x="16" y="768" width="16" height="16" fill="#ff6b9d" opacity="0.4"/>
  <rect x="768" y="768" width="16" height="16" fill="#ff6b9d" opacity="0.4"/>
  <rect x="32" y="16" width="16" height="16" fill="#4a4a8a" opacity="0.3"/>
  <rect x="16" y="32" width="16" height="16" fill="#4a4a8a" opacity="0.3"/>
  <rect x="752" y="16" width="16" height="16" fill="#4a4a8a" opacity="0.3"/>
  <rect x="768" y="32" width="16" height="16" fill="#4a4a8a" opacity="0.3"/>
  <rect x="16" y="752" width="16" height="16" fill="#4a4a8a" opacity="0.3"/>
  <rect x="32" y="768" width="16" height="16" fill="#4a4a8a" opacity="0.3"/>
  <rect x="752" y="768" width="16" height="16" fill="#4a4a8a" opacity="0.3"/>
  <rect x="768" y="752" width="16" height="16" fill="#4a4a8a" opacity="0.3"/>
  <rect x="256" y="620" width="96" height="8" fill="#00d4aa" opacity="0.5"/>
  <rect x="352" y="620" width="96" height="8" fill="#ff6b9d" opacity="0.5"/>
  <rect x="448" y="620" width="96" height="8" fill="#ffd93d" opacity="0.5"/>
</svg>