<svg xmlns="http://www.w3.org/2000/svg" viewBox="0 0 200 200" shape-rendering="crispEdges">
  <!-- Background subtle grid -->
  <rect width="200" height="200" fill="none"/>
  
  <!-- Sad pixel robot -->
  <!-- Head -->
  <rect x="68" y="24" width="64" height="8" fill="#4a4a8a"/>
  <rect x="60" y="32" width="80" height="8" fill="#4a4a8a"/>
  <rect x="60" y="40" width="80" height="8" fill="#e8e8e8"/>
  <rect x="60" y="48" width="80" height="8" fill="#e8e8e8"/>
  <rect x="60" y="56" width="80" height="8" fill="#e8e8e8"/>
  <rect x="68" y="64" width="64" height="8" fill="#e8e8e8"/>
  <!-- Antenna -->
  <rect x="96" y="8" width="8" height="16" fill="#4a4a8a"/>
  <rect x="92" y="4" width="16" height="8" fill="#ff6b9d"/>
  <!-- Eyes (sad - angled down) -->
  <rect x="72" y="40" width="8" height="8" fill="#0f0f23"/>
  <rect x="76" y="44" width="8" height="8" fill="#0f0f23"/>
  <rect x="116" y="44" width="8" height="8" fill="#0f0f23"/>
  <rect x="120" y="40" width="8" height="8" fill="#0f0f23"/>
  <!-- Sad mouth -->
  <rect x="84" y="60" width="8" height="4" fill="#0f0f23"/>
  <rect x="108" y="60" width="8" height="4" fill="#0f0f23"/>
  <rect x="92" y="64" width="16" height="4" fill="#0f0f23"/>
  <!-- Tear -->
  <rect x="76" y="52" width="4" height="4" fill="#00d4aa" opacity="0.6"/>
  <rect x="76" y="56" width="4" height="4" fill="#00d4aa" opacity="0.4"/>
  <!-- Body -->
  <rect x="76" y="72" width="48" height="8" fill="#e8e8e8"/>
  <rect x="72" y="80" width="56" height="8" fill="#e8e8e8"/>
  <rect x="72" y="88" width="56" height="8" fill="#e8e8e8"/>
  <rect x="72" y="96" width="56" height="8" fill="#e8e8e8"/>
  <rect x="76" y="104" width="48" height="8" fill="#e8e8e8"/>
  <!-- Body details -->
  <rect x="88" y="80" width="24" height="4" fill="#4a4a8a"/>
  <rect x="92" y="88" width="16" height="8" fill="#ff6b9d" opacity="0.4"/>
  <!-- Arms -->
  <rect x="56" y="80" width="16" height="8" fill="#e8e8e8"/>
  <rect x="52" y="88" width="8" height="8" fill="#e8e8e8"/>
  <rect x="128" y="80" width="16" height="8" fill="#e8e8e8"/>
  <rect x="140" y="88" width="8" height="8" fill="#e8e8e8"/>
  <!-- Legs -->
  <rect x="80" y="112" width="12" height="12" fill="#e8e8e8"/>
  <rect x="108" y="112" width="12" height="12" fill="#e8e8e8"/>
  <rect x="76" y="124" width="16" height="8" fill="#4a4a8a"/>
  <rect x="108" y="124" width="16" height="8" fill="#4a4a8a"/>
  
  <!-- "GAME OVER" pixel text -->
  <!-- G -->
  <rect x="28" y="148" width="12" height="4" fill="#ff6b9d"/>
  <rect x="24" y="152" width="4" height="12" fill="#ff6b9d"/>
  <rect x="28" y="164" width="12" height="4" fill="#ff6b9d"/>
  <rect x="36" y="156" width="4" height="8" fill="#ff6b9d"/>
  <rect x="32" y="156" width="4" height="4" fill="#ff6b9d"/>
  <!-- A -->
  <rect x="46" y="148" width="8" height="4" fill="#ff6b9d"/>
  <rect x="42" y="152" width="4" height="16" fill="#ff6b9d"/>
  <rect x="54" y="152" width="4" height="16" fill="#ff6b9d"/>
  <rect x="46" y="158" width="8" height="4" fill="#ff6b9d"/>
  <!-- M -->
  <rect x="62" y="148" width="4" height="20" fill="#ff6b9d"/>
  <rect x="78" y="148" width="4" height="20" fill="#ff6b9d"/>
  <rect x="66" y="152" width="4" height="4" fill="#ff6b9d"/>
  <rect x="74" y="152" width="4" height="4" fill="#ff6b9d"/>
  <rect x="70" y="156" width="4" height="4" fill="#ff6b9d"/>
  <!-- E -->
  <rect x="86" y="148" width="12" height="4" fill="#ff6b9d"/>
  <rect x="86" y="152" width="4" height="16" fill="#ff6b9d"/>
  <rect x="86" y="156" width="10" height="4" fill="#ff6b9d"/>
  <rect x="86" y="164" width="12" height="4" fill="#ff6b9d"/>
  
  <!-- O -->
  <rect x="108" y="148" width="8" height="4" fill="#ffd93d"/>
  <rect x="104" y="152" width="4" height="12" fill="#ffd93d"/>
  <rect x="116" y="152" width="4" height="12" fill="#ffd93d"/>
  <rect x="108" y="164" width="8" height="4" fill="#ffd93d"/>
  <!-- V -->
  <rect x="124" y="148" width="4" height="12" fill="#ffd93d"/>
  <rect x="136" y="148" width="4" height="12" fill="#ffd93d"/>
  <rect x="128" y="160" width="4" height="4" fill="#ffd93d"/>
  <rect x="132" y="160" width="4" height="4" fill="#ffd93d"/>
  <rect x="130" y="164" width="4" height="4" fill="#ffd93d"/>
  <!-- E -->
  <rect x="144" y="148" width="12" height="4" fill="#ffd93d"/>
  <rect x="144" y="152" width="4" height="16" fill="#ffd93d"/>
  <rect x="144" y="156" width="10" height="4" fill="#ffd93d"/>
  <rect x="144" y="164" width="12" height="4" fill="#ffd93d"/>
  <!-- R -->
  <rect x="160" y="148" width="4" height="20" fill="#ffd93d"/>
  <rect x="164" y="148" width="8" height="4" fill="#ffd93d"/>
  <rect x="172" y="152" width="4" height="4" fill="#ffd93d"/>
  <rect x="164" y="156" width="8" height="4" fill="#ffd93d"/>
  <rect x="168" y="160" width="4" height="4" fill="#ffd93d"/>
  <rect x="172" y="164" width="4" height="4" fill="#ffd93d"/>
  
  <!-- Decorative pixel sparkles -->
  <rect x="20" y="20" width="4" height="4" fill="#ffd93d" opacity="0.3"/>
  <rect x="168" y="12" width="4" height="4" fill="#00d4aa" opacity="0.3"/>
  <rect x="180" y="40" width="4" height="4" fill="#ff6b9d" opacity="0.2"/>
  <rect x="12" y="80" width="4" height="4" fill="#00d4aa" opacity="0.2"/>
  <rect x="184" y="100" width="4" height="4" fill="#ffd93d" opacity="0.2"/>
  
  <!-- Press START pixel hint -->
  <rect x="64" y="184" width="4" height="4" fill="#4a4a8a" opacity="0.4"/>
  <rect x="72" y="184" width="4" height="4" fill="#4a4a8a" opacity="0.4"/>
  <rect x="80" y="184" width="4" height="4" fill="#4a4a8a" opacity="0.4"/>
  <rect x="88" y="184" width="4" height="4" fill="#4a4a8a" opacity="0.4"/>
  <rect x="96" y="184" width="4" height="4" fill="#4a4a8a" opacity="0.4"/>
  <rect x="104" y="184" width="4" height="4" fill="#4a4a8a" opacity="0.4"/>
  <rect x="112" y="184" width="4" height="4" fill="#4a4a8a" opacity="0.4"/>
  <rect x="120" y="184" width="4" height="4" fill="#4a4a8a" opacity="0.4"/>
  <rect x="128" y="184" width="4" height="4" fill="#4a4a8a" opacity="0.4"/>
</svg>
